<svg xmlns="http://www.w3.org/2000/svg" viewBox="0 0 512 512" width="512" height="512">
<defs>
  <radialGradient id="stone" cx="50%" cy="42%" r="70%">
    <stop offset="0" stop-color="#2e2822"/><stop offset="0.65" stop-color="#1b1814"/><stop offset="1" stop-color="#110f0c"/>
  </radialGradient>
  <linearGradient id="copper" x1="0" y1="0" x2="0" y2="1">
    <stop offset="0" stop-color="#f3cf8f"/><stop offset="0.28" stop-color="#e3a863"/>
    <stop offset="0.62" stop-color="#c8813f"/><stop offset="1" stop-color="#8d4f24"/>
  </linearGradient>
  <linearGradient id="copperRim" x1="0" y1="0" x2="1" y2="1">
    <stop offset="0" stop-color="#e9b877"/><stop offset="0.5" stop-color="#a8652f"/><stop offset="1" stop-color="#e0a05c"/>
  </linearGradient>
  <linearGradient id="sheen" x1="0" y1="0" x2="1" y2="1">
    <stop offset="0" stop-color="#fff3d6" stop-opacity="0.55"/><stop offset="0.35" stop-color="#fff3d6" stop-opacity="0"/>
  </linearGradient>
  <filter id="drop" x="-20%" y="-20%" width="140%" height="140%">
    <feDropShadow dx="0" dy="10" stdDeviation="10" flood-color="#000" flood-opacity="0.55"/>
  </filter>
  <filter id="grain"><feTurbulence type="fractalNoise" baseFrequency="0.9" numOctaves="2" seed="4"/>
    <feColorMatrix values="0 0 0 0 0.5  0 0 0 0 0.45  0 0 0 0 0.4  0 0 0 0.07 0"/></filter>
  <clipPath id="eclip"><path d="M158 108 H370 V176 H234 V222 H338 V290 H234 V336 H370 V404 H158 Z"/></clipPath>
  
</defs>
<rect x="8" y="8" width="496" height="496" rx="96" fill="url(#stone)"/>
<rect x="8" y="8" width="496" height="496" rx="96" filter="url(#grain)"/>
<rect x="22" y="22" width="468" height="468" rx="84" fill="none" stroke="url(#copperRim)" stroke-width="5" opacity="0.9"/>
<rect x="8.5" y="8.5" width="495" height="495" rx="95.5" fill="none" stroke="#453d33" stroke-width="3"/>

<g filter="url(#drop)" transform="translate(0,0)">
  <path d="M158 108 H370 V176 H234 V222 H338 V290 H234 V336 H370 V404 H158 Z" fill="url(#copper)" stroke="#3a2210" stroke-width="7" stroke-linejoin="round"/>
</g>
<path d="M158 108 H370 V176 H234 V222 H338 V290 H234 V336 H370 V404 H158 Z" fill="url(#sheen)" clip-path="url(#eclip)"/>
<path d="M158 108 H370 V176 H234 V222 H338 V290 H234 V336 H370 V404 H158 Z" fill="none" stroke="#ffe4b0" stroke-opacity="0.35" stroke-width="3" transform="translate(3,3)" clip-path="url(#eclip)"/>

</svg>